PathFileType	4	(X/Y/Z)	1H_nor_slow_right.trc
DataRate	CameraRate	NumFrames	NumMarkers	Units	OrigDataRate	OrigDataStartFrame	OrigNumFrames
250.00	250.00	20	18	mm	250.00	19104	25471
Frame#	Time	c7	r_should	l_should	clavicle	r_upa	r_elb_l	r_elb_m	r_low	r_wri_l	r_wri_m	r_met	l_upa	l_elb_l	l_elb_m	l_low	l_wri_l	l_wri_m	l_met
	X1	Y1	Z1	X2	Y2	Z2	X3	Y3	Z3	X4	Y4	Z4	X5	Y5	Z5	X6	Y6	Z6	X7	Y7	Z7	X8	Y8	Z8	X9	Y9	Z9	X10	Y10	Z10	X11	Y11	Z11	X12	Y12	Z12	X13	Y13	Z13	X14	Y14	Z14	X15	Y15	Z15	X16	Y16	Z16	X17	Y17	Z17	X18	Y18	Z18
19104	76.41200	1196.29297	1429.29089	179.28265	1279.64929	1357.68945	321.25986	1173.74146	1371.51428	-2.93742	1299.45251	1287.58972	139.87836	1309.01343	1143.21167	371.91403	1317.13696	1055.37744	388.15625	1228.39368	1026.06580	353.16754	1332.31335	919.94891	382.54214	1341.62024	793.38623	366.24142	1289.52051	796.00464	422.02310	1367.64331	728.88013	403.64856	1151.65137	1153.23474	-62.83259	1157.21619	1047.84412	-81.88103	1124.44043	1035.19946	7.07990	1185.51379	935.33105	-74.76115	1233.43982	821.86053	-31.56028	1157.96729	807.91418	-50.32543	1227.79663	739.79663	-74.20955
19105	76.41600	1196.22754	1429.30847	179.40813	1279.60046	1357.65967	321.36523	1173.69324	1371.53223	-2.82148	1299.41052	1287.60571	139.97351	1308.99390	1143.15845	371.94223	1317.11694	1055.29895	388.12546	1228.35852	1026.00842	353.15988	1332.30945	919.90253	382.37769	1341.59583	793.33594	365.95660	1289.54382	795.91846	421.78882	1367.65552	728.81805	403.31918	1151.61108	1153.27356	-62.74860	1157.17566	1047.87915	-81.80840	1124.38123	1035.23157	7.13244	1186.08655	934.66132	-74.15852	1233.39880	821.89319	-31.48239	1157.92712	807.95160	-50.28051	1227.75012	739.83142	-74.13654
19106	76.42000	1196.44055	1428.88892	179.13512	1279.55542	1357.62415	321.46814	1173.65808	1371.56067	-2.73388	1299.36804	1287.62415	140.06488	1308.97937	1143.10449	371.97180	1317.09351	1055.22778	388.10049	1228.32812	1025.95764	353.15942	1332.30420	919.84351	382.21912	1341.58228	793.29144	365.64743	1289.57190	795.84521	421.54498	1367.68311	728.75354	402.97638	1151.57166	1153.30212	-62.67154	1157.13794	1047.90833	-81.73165	1124.33789	1035.25696	7.18348	1186.82812	933.79590	-73.40694	1233.34741	821.91541	-31.41604	1157.88757	807.99609	-50.22515	1227.70837	739.87183	-74.06589
19107	76.42400	1196.99609	1427.93481	178.38159	1279.51831	1357.59509	321.56821	1173.61975	1371.59204	-2.64096	1299.32397	1287.64380	140.15521	1308.96228	1143.04346	372.00540	1317.07227	1055.16638	388.08398	1228.29028	1025.91309	353.16705	1332.29626	919.77893	382.06631	1341.58447	793.25690	365.34250	1289.60181	795.77417	421.29712	1367.71863	728.69012	402.61389	1151.53564	1153.32996	-62.58371	1157.10327	1047.95007	-81.66731	1124.29114	1035.28162	7.24176	1185.72229	935.03668	-74.27680	1233.31140	821.93781	-31.33961	1157.84180	808.04388	-50.17171	1227.66785	739.90991	-73.99790
19108	76.42800	1197.08936	1427.70032	178.27956	1279.48621	1357.56677	321.66940	1173.56995	1371.62256	-2.54572	1299.28125	1287.66162	140.24113	1308.94324	1142.98669	372.04657	1317.04578	1055.10376	388.06168	1228.23718	1025.87610	353.18018	1332.28943	919.72614	381.92206	1341.58447	793.22656	365.04126	1289.63354	795.71106	421.04630	1367.74854	728.62689	402.24344	1151.49426	1153.36157	-62.50221	1157.07202	1047.98560	-81.59378	1124.24316	1035.31067	7.30377	1185.41211	935.37762	-74.45091	1233.28137	821.95630	-31.26728	1157.79602	808.08832	-50.11474	1227.62708	739.94684	-73.93388
19109	76.43200	1197.06555	1427.64661	178.34557	1279.45691	1357.53027	321.76709	1173.52551	1371.66431	-2.46068	1299.23157	1287.67822	140.32419	1308.91858	1142.92651	372.09921	1317.00378	1055.03674	388.04507	1228.17932	1025.84021	353.20007	1332.27600	919.67590	381.77286	1341.58643	793.19775	364.74152	1289.66772	795.65027	420.79776	1367.78235	728.57092	401.87256	1151.45178	1153.40076	-62.42846	1157.03455	1048.01489	-81.50833	1124.18933	1035.33179	7.36720	1185.29126	935.49524	-74.43144	1233.23975	821.98444	-31.20393	1157.74951	808.11633	-50.06797	1227.58081	739.98773	-73.87270
19110	76.43600	1197.00720	1427.63867	178.45787	1279.43164	1357.48938	321.85925	1173.47400	1371.69714	-2.35914	1299.18030	1287.68994	140.40735	1308.88818	1142.86328	372.15759	1316.94324	1054.97070	388.04807	1228.11719	1025.80737	353.22382	1332.25647	919.62988	381.65228	1341.58447	793.16412	364.44229	1289.69226	795.57825	420.53546	1367.81616	728.51910	401.49878	1151.41016	1153.43530	-62.34761	1156.99658	1048.04565	-81.42448	1124.13599	1035.36035	7.43772	1185.22241	935.54852	-74.38570	1233.19385	822.01349	-31.14787	1157.70166	808.14453	-50.01100	1227.52881	740.02246	-73.81600
19111	76.44000	1196.94153	1427.62830	178.58203	1279.41406	1357.44861	321.95572	1173.41223	1371.72424	-2.26592	1299.12769	1287.69678	140.49686	1308.85510	1142.79993	372.22305	1316.87756	1054.90332	388.07935	1228.04932	1025.77454	353.26080	1332.22986	919.58710	381.53714	1341.58545	793.13861	364.14688	1289.72302	795.49255	420.25464	1367.85315	728.48090	401.11880	1151.36646	1153.46667	-62.26588	1156.95239	1048.08777	-81.35095	1124.08264	1035.38428	7.50295	1185.16931	935.58191	-74.32467	1233.14795	822.04004	-31.08237	1157.65332	808.17719	-49.96582	1227.47559	740.05206	-73.75600
19112	76.44400	1196.87927	1427.61731	178.71458	1279.39917	1357.40137	322.04950	1173.34216	1371.75208	-2.15489	1299.07336	1287.69983	140.59212	1308.81348	1142.74243	372.30151	1316.79749	1054.83447	388.13376	1227.96582	1025.74231	353.31134	1332.19629	919.54456	381.41858	1341.58496	793.12640	363.84808	1289.76843	795.40430	419.96240	1367.90076	728.45007	400.73560	1151.31775	1153.50000	-62.19198	1156.90613	1048.12878	-81.27927	1124.02600	1035.41309	7.57194	1185.11133	935.61664	-74.23685	1233.08936	822.06598	-31.02251	1157.60730	808.21088	-49.92992	1227.42078	740.07715	-73.70253
19113	76.44800	1196.81213	1427.60828	178.84451	1279.39551	1357.35034	322.14304	1173.27100	1371.77637	-2.04105	1299.02185	1287.70679	140.68163	1308.76453	1142.67834	372.38763	1316.70361	1054.76636	388.20367	1227.87915	1025.71790	353.38263	1332.15710	919.50128	381.30334	1341.58704	793.13861	363.53369	1289.81641	795.30640	419.65390	1367.95288	728.42462	400.33759	1151.26404	1153.53552	-62.12154	1156.86365	1048.16687	-81.20188	1123.96326	1035.45215	7.64340	1185.06812	935.65259	-74.17591	1233.03979	822.10236	-30.97480	1157.56091	808.24420	-49.89591	1227.36414	740.10004	-73.65440
19114	76.45200	1196.74707	1427.59875	178.98140	1279.39539	1357.30359	322.23474	1173.19641	1371.80042	-1.93790	1298.96497	1287.71655	140.75633	1308.69934	1142.60486	372.47879	1316.60278	1054.70300	388.28757	1227.79443	1025.69299	353.47363	1332.12036	919.46558	381.19647	1341.58008	793.14783	363.17499	1289.87744	795.21722	419.35437	1368.00720	728.40625	399.92267	1151.20215	1153.57422	-62.05037	1156.81726	1048.20203	-81.12363	1123.91479	1035.49036	7.70932	1185.01648	935.68713	-74.11261	1232.98621	822.15149	-30.93650	1157.52039	808.27142	-49.85209	1227.30725	740.12659	-73.60794
19115	76.45600	1196.68811	1427.59460	179.11685	1279.39941	1357.25940	322.32123	1173.12976	1371.82043	-1.83314	1298.90967	1287.72546	140.83640	1308.63098	1142.54224	372.58466	1316.49585	1054.63916	388.36740	1227.69971	1025.67749	353.57703	1332.07520	919.43805	381.09320	1341.57532	793.16406	362.79901	1289.93604	795.15216	419.06293	1368.06409	728.39758	399.49887	1151.14551	1153.61890	-61.98510	1156.77441	1048.24451	-81.05360	1123.86438	1035.52551	7.78400	1184.96460	935.72125	-74.04234	1232.93176	822.18573	-30.88490	1157.47400	808.30975	-49.79957	1227.25647	740.15662	-73.56284
19116	76.46000	1196.63354	1427.59485	179.24731	1279.40417	1357.22107	322.40866	1173.06262	1371.84399	-1.71735	1298.85168	1287.73071	140.90892	1308.56067	1142.48877	372.69312	1316.38745	1054.59009	388.45319	1227.60107	1025.66479	353.69351	1332.03345	919.42413	380.99564	1341.57959	793.20026	362.43201	1289.97986	795.09296	418.76111	1368.12402	728.40045	399.07629	1151.09180	1153.66455	-61.91542	1156.73206	1048.28308	-80.97381	1123.81311	1035.56274	7.85515	1184.92151	935.76849	-73.98685	1232.88342	822.21307	-30.83439	1157.41980	808.34564	-49.75245	1227.20752	740.19232	-73.51987
19117	76.46400	1196.57947	1427.59802	179.37396	1279.41394	1357.18604	322.49496	1172.99915	1371.88098	-1.60965	1298.79724	1287.73999	140.97890	1308.48975	1142.44458	372.81210	1316.27405	1054.55115	388.53436	1227.49487	1025.65356	353.82401	1331.98926	919.41284	380.88745	1341.59119	793.23987	362.09100	1290.01587	795.03510	418.45273	1368.18750	728.41632	398.64188	1151.03796	1153.70288	-61.83434	1156.68469	1048.32739	-80.90066	1123.77405	1035.58826	7.92260	1184.88208	935.81952	-73.93045	1232.83875	822.24884	-30.78439	1157.37317	808.38275	-49.71096	1227.15869	740.23572	-73.48026
19118	76.46800	1196.52661	1427.60510	179.49533	1279.41772	1357.15149	322.59216	1172.92004	1371.91467	-1.48221	1298.74756	1287.75281	141.05620	1308.42126	1142.39575	372.94550	1316.15405	1054.51904	388.61569	1227.38782	1025.63855	353.96252	1331.94397	919.41125	380.77353	1341.59900	793.28302	361.75201	1290.05774	794.98090	418.15460	1368.26343	728.44336	398.19592	1150.97864	1153.74634	-61.75552	1156.63745	1048.37280	-80.82515	1123.72729	1035.61426	7.99547	1184.83948	935.87292	-73.86626	1232.79285	822.28912	-30.73760	1157.32288	808.42029	-49.66362	1227.11548	740.28314	-73.44232
19119	76.47200	1196.47961	1427.60718	179.62672	1279.42346	1357.11255	322.68750	1172.85059	1371.95935	-1.35877	1298.69739	1287.77112	141.13725	1308.34399	1142.34912	373.08347	1316.02856	1054.50073	388.71304	1227.27966	1025.62903	354.11258	1331.90613	919.41827	380.66843	1341.61304	793.33954	361.43011	1290.10706	794.92590	417.87607	1368.35120	728.48676	397.75403	1150.91418	1153.79236	-61.67433	1156.58875	1048.41101	-80.74419	1123.66626	1035.63623	8.06727	1184.79712	935.93243	-73.80326	1232.74707	822.33704	-30.67750	1157.27039	808.45831	-49.61331	1227.07556	740.33270	-73.40591
19120	76.47600	1196.43213	1427.60303	179.75098	1279.42224	1357.07239	322.78549	1172.78418	1372.00183	-1.23750	1298.64722	1287.78650	141.21718	1308.26135	1142.30298	373.22879	1315.89905	1054.47644	388.81912	1227.17139	1025.61792	354.27853	1331.86780	919.43164	380.56168	1341.63708	793.40747	361.09985	1290.16357	794.86896	417.59750	1368.44067	728.54053	397.31424	1150.84656	1153.83582	-61.58878	1156.53271	1048.44788	-80.67789	1123.60071	1035.66101	8.14377	1184.74451	935.97827	-73.73710	1232.69885	822.38354	-30.61616	1157.21887	808.49017	-49.56327	1227.03320	740.38019	-73.37654
19121	76.48000	1196.38660	1427.59534	179.87782	1279.41211	1357.02661	322.87961	1172.70703	1372.03625	-1.10519	1298.59448	1287.79431	141.29677	1308.16821	1142.26025	373.38126	1315.76550	1054.45569	388.94073	1227.06189	1025.60352	354.46628	1331.81714	919.44855	380.45361	1341.65820	793.47968	360.74664	1290.21960	794.80695	417.31345	1368.53833	728.59576	396.85904	1150.77661	1153.87708	-61.50726	1156.46350	1048.48804	-80.60979	1123.54248	1035.68494	8.22300	1184.68433	936.01801	-73.68272	1232.64612	822.42487	-30.55988	1157.16101	808.52289	-49.51610	1226.99292	740.41791	-73.34616
19122	76.48400	1196.33984	1427.58655	180.00168	1279.39685	1356.97681	322.96713	1172.63940	1372.07373	-1.00364	1298.54102	1287.79224	141.37997	1308.06689	1142.21350	373.53372	1315.63062	1054.43616	389.06223	1226.94067	1025.59326	354.66711	1331.76611	919.46173	380.34064	1341.66406	793.55554	360.37851	1290.28320	794.75482	417.04404	1368.63831	728.64465	396.39114	1150.69824	1153.90857	-61.42783	1156.39587	1048.51965	-80.53799	1123.50085	1035.70044	8.29355	1184.62158	936.04828	-73.62762	1232.59619	822.47626	-30.52216	1157.10803	808.55286	-49.47266	1226.94812	740.45361	-73.31982
19123	76.48800	1196.02612	1427.73901	180.67732	1279.37158	1356.93604	323.05646	1172.56604	1372.10388	-0.89198	1298.48596	1287.78601	141.46588	1307.97241	1142.16028	373.68524	1315.49670	1054.41846	389.18878	1226.82385	1025.59326	354.88010	1331.70630	919.48431	380.23340	1341.67310	793.64136	360.00436	1290.36206	794.71118	416.76822	1368.74011	728.70148	395.91733	1150.61951	1153.93457	-61.34561	1156.31909	1048.54175	-80.46711	1123.45410	1035.71289	8.35727	1184.55432	936.08826	-73.57156	1232.55164	822.52454	-30.47826	1157.05627	808.58447	-49.42744	1226.90332	740.48010	-73.29058
